<svg id="svg" version="1.1" width="400" height="400" xmlns="http://www.w3.org/2000/svg" xmlns:xlink="http://www.w3.org/1999/xlink" style="display: block;"><g id="svgg"><path id="path0" d="M251.533 116.250 C 249.993 132.908,247.202 133.777,233.000 122.018 C 227.930 117.820,224.086 115.581,223.300 116.366 C 222.301 117.366,227.149 123.972,231.821 127.976 C 234.394 130.182,235.962 131.990,235.305 131.994 C 234.648 131.997,229.473 136.337,223.805 141.638 C 210.041 154.510,211.984 153.683,192.500 154.962 C 153.107 157.546,152.096 157.879,143.550 171.050 C 138.849 178.294,133.501 182.322,122.895 186.605 C 116.021 189.381,110.000 193.406,110.000 195.225 C 110.000 195.843,111.013 195.409,112.250 194.260 C 113.488 193.111,118.701 190.366,123.836 188.161 C 128.971 185.956,134.975 182.959,137.178 181.501 C 139.381 180.043,141.480 179.148,141.842 179.511 C 143.108 180.783,142.328 205.581,140.741 214.500 C 136.687 237.285,137.287 241.940,144.376 242.739 C 149.830 243.354,150.434 241.859,146.750 236.876 C 141.955 230.390,144.636 216.364,152.794 205.254 C 159.948 195.510,160.108 195.701,162.495 216.855 C 164.466 234.315,168.699 242.588,174.519 240.354 C 176.962 239.417,177.016 236.920,174.642 234.693 C 171.277 231.536,170.384 229.395,169.020 221.207 L 167.805 213.913 171.564 206.207 C 173.631 201.968,175.463 198.325,175.634 198.111 C 175.805 197.896,178.575 198.459,181.788 199.361 C 185.002 200.262,190.189 201.000,193.316 201.000 L 199.000 201.000 199.000 216.362 L 199.000 231.725 202.000 235.500 C 203.650 237.576,205.000 239.686,205.000 240.189 C 205.000 242.132,212.165 244.263,213.663 242.765 C 214.836 241.592,214.408 240.499,210.804 235.467 C 205.302 227.783,204.370 219.923,208.144 213.037 C 209.440 210.674,210.944 207.898,211.487 206.870 C 212.728 204.518,213.982 204.460,214.058 206.750 C 214.089 207.713,214.477 213.520,214.919 219.656 L 215.723 230.812 219.944 235.818 C 224.579 241.316,228.415 243.014,230.803 240.625 C 232.125 239.304,231.827 238.672,228.185 235.067 C 223.869 230.793,221.470 224.715,222.266 220.070 C 222.997 215.803,227.158 201.908,229.729 195.149 C 231.438 190.655,232.408 185.329,233.045 176.932 C 234.627 156.095,237.555 152.220,245.691 160.195 C 253.842 168.186,259.289 169.682,260.639 164.302 C 261.580 160.554,260.331 146.267,258.558 140.500 C 257.626 137.467,257.017 131.651,257.011 125.718 C 256.994 110.083,252.777 102.795,251.533 116.250 M6.800 263.200 C 8.459 264.859,8.459 288.141,6.800 289.800 C 5.867 290.733,6.867 291.000,11.300 291.000 C 14.435 291.000,17.000 290.550,17.000 290.000 C 17.000 289.450,16.550 289.000,16.000 289.000 C 15.450 289.000,15.000 286.525,15.000 283.500 C 15.000 277.893,18.689 275.141,20.362 279.500 C 21.475 282.401,23.000 280.956,23.000 277.000 C 23.000 273.044,21.475 271.599,20.362 274.500 C 18.599 279.094,15.000 276.074,15.000 270.000 C 15.000 263.007,19.073 261.130,22.592 266.500 C 24.992 270.163,27.000 269.707,27.000 265.500 L 27.000 262.000 16.300 262.000 C 7.978 262.000,5.867 262.267,6.800 263.200 M38.138 267.361 C 32.080 283.553,29.761 289.000,28.927 289.000 C 28.417 289.000,28.000 289.450,28.000 290.000 C 28.000 290.550,30.029 291.000,32.508 291.000 C 36.644 291.000,36.921 290.847,35.862 289.151 C 33.434 285.262,35.550 282.000,40.500 282.000 C 45.450 282.000,47.566 285.262,45.138 289.151 C 44.061 290.875,44.401 291.000,50.147 291.000 C 55.943 291.000,56.217 290.896,54.752 289.250 C 53.895 288.288,51.514 281.762,49.460 274.750 C 44.887 259.132,41.937 257.207,38.138 267.361 M65.315 263.464 C 56.302 267.384,56.158 286.768,65.119 289.892 C 72.536 292.477,79.000 291.081,79.000 286.893 C 79.000 283.433,76.892 283.047,75.487 286.250 C 70.720 297.115,61.691 279.856,66.331 268.750 C 68.594 263.335,76.000 262.471,76.000 267.622 C 76.000 268.380,76.675 269.000,77.500 269.000 C 79.581 269.000,79.510 263.410,77.418 262.607 C 74.737 261.578,68.661 262.008,65.315 263.464 M82.000 265.500 C 82.000 269.711,84.538 270.346,86.000 266.500 C 86.582 264.969,87.736 264.000,88.975 264.000 C 90.900 264.000,91.000 264.616,91.000 276.500 C 91.000 284.167,90.613 289.000,90.000 289.000 C 89.450 289.000,89.000 289.450,89.000 290.000 C 89.000 290.550,91.475 291.000,94.500 291.000 C 97.525 291.000,100.000 290.550,100.000 290.000 C 100.000 289.450,99.550 289.000,99.000 289.000 C 98.387 289.000,98.000 284.167,98.000 276.500 C 98.000 263.264,99.973 259.457,103.182 266.500 C 104.878 270.223,107.000 269.668,107.000 265.500 L 107.000 262.000 94.500 262.000 L 82.000 262.000 82.000 265.500 M115.030 263.279 C 108.057 266.808,108.828 272.765,117.000 278.496 C 122.255 282.181,123.818 287.288,120.057 288.482 C 117.178 289.396,114.215 288.254,113.484 285.949 C 112.493 282.826,110.000 283.565,110.000 286.981 C 110.000 290.534,112.576 291.533,119.672 290.734 C 130.613 289.500,131.918 279.060,121.777 273.886 C 117.146 271.524,115.060 267.838,117.017 265.479 C 118.867 263.251,123.282 264.002,124.487 266.750 C 125.892 269.953,128.000 269.567,128.000 266.107 C 128.000 261.925,120.806 260.357,115.030 263.279 M160.800 263.200 C 162.459 264.859,162.459 288.141,160.800 289.800 C 159.867 290.733,160.867 291.000,165.300 291.000 C 168.435 291.000,171.000 290.550,171.000 290.000 C 171.000 289.450,170.550 289.000,170.000 289.000 C 169.450 289.000,169.000 286.525,169.000 283.500 C 169.000 277.893,172.689 275.141,174.362 279.500 C 175.475 282.401,177.000 280.956,177.000 277.000 C 177.000 273.044,175.475 271.599,174.362 274.500 C 172.599 279.094,169.000 276.074,169.000 270.000 C 169.000 263.007,173.073 261.130,176.592 266.500 C 178.992 270.163,181.000 269.707,181.000 265.500 L 181.000 262.000 170.300 262.000 C 161.978 262.000,159.867 262.267,160.800 263.200 M184.000 263.000 C 184.000 263.550,184.450 264.000,185.000 264.000 C 185.600 264.000,186.000 267.984,186.000 273.953 C 186.000 288.556,188.520 291.878,198.727 290.727 C 205.914 289.917,207.000 287.947,207.000 275.718 C 207.000 267.760,207.346 265.275,208.655 263.829 C 210.238 262.079,210.085 262.000,205.132 262.000 L 199.954 262.000 201.596 264.506 C 205.573 270.575,202.492 289.000,197.500 289.000 C 192.508 289.000,189.427 270.575,193.404 264.506 L 195.046 262.000 189.523 262.000 C 186.485 262.000,184.000 262.450,184.000 263.000 M213.000 263.000 C 213.000 263.550,213.450 264.000,214.000 264.000 C 214.613 264.000,215.000 268.833,215.000 276.500 C 215.000 284.167,214.613 289.000,214.000 289.000 C 213.450 289.000,213.000 289.450,213.000 290.000 C 213.000 290.550,214.800 291.000,217.000 291.000 C 219.200 291.000,221.000 290.550,221.000 290.000 C 221.000 289.450,220.581 289.000,220.069 289.000 C 219.556 289.000,218.994 284.714,218.819 279.475 C 218.456 268.635,218.271 268.569,225.554 281.900 C 229.917 289.884,230.824 290.955,233.250 290.976 L 236.000 291.000 236.000 278.059 C 236.000 270.510,236.417 264.861,237.000 264.500 C 239.208 263.136,237.774 262.000,233.845 262.000 C 229.883 262.000,229.767 262.085,231.345 263.829 C 232.610 265.227,232.999 267.640,232.995 274.079 L 232.989 282.500 227.257 272.250 L 221.525 262.000 217.263 262.000 C 214.918 262.000,213.000 262.450,213.000 263.000 M270.000 263.000 C 270.000 263.550,270.450 264.000,271.000 264.000 C 271.613 264.000,272.000 268.833,272.000 276.500 C 272.000 284.167,271.613 289.000,271.000 289.000 C 270.450 289.000,270.000 289.450,270.000 290.000 C 270.000 290.550,271.800 291.000,274.000 291.000 C 276.200 291.000,278.000 290.550,278.000 290.000 C 278.000 289.450,277.581 289.000,277.069 289.000 C 276.556 289.000,275.994 284.714,275.819 279.475 C 275.456 268.635,275.271 268.569,282.554 281.900 C 286.917 289.884,287.824 290.955,290.250 290.976 L 293.000 291.000 293.000 278.059 C 293.000 270.510,293.417 264.861,294.000 264.500 C 296.208 263.136,294.774 262.000,290.845 262.000 C 286.883 262.000,286.767 262.085,288.345 263.829 C 289.610 265.227,289.999 267.640,289.995 274.079 L 289.989 282.500 284.257 272.250 L 278.525 262.000 274.263 262.000 C 271.918 262.000,270.000 262.450,270.000 263.000 M299.000 263.000 C 299.000 263.550,299.450 264.000,300.000 264.000 C 300.613 264.000,301.000 268.833,301.000 276.500 C 301.000 284.167,300.613 289.000,300.000 289.000 C 299.450 289.000,299.000 289.450,299.000 290.000 C 299.000 290.603,303.167 291.000,309.500 291.000 L 320.000 291.000 320.000 287.000 C 320.000 282.170,317.960 281.618,316.306 286.000 C 315.338 288.565,314.654 289.000,311.587 289.000 L 308.000 289.000 308.000 283.000 C 308.000 276.926,311.599 273.906,313.362 278.500 C 314.475 281.401,316.000 279.956,316.000 276.000 C 316.000 272.044,314.475 270.599,313.362 273.500 C 311.689 277.859,308.000 275.107,308.000 269.500 L 308.000 264.000 311.521 264.000 C 314.307 264.000,315.281 264.522,316.182 266.500 C 317.878 270.223,320.000 269.668,320.000 265.500 L 320.000 262.000 309.500 262.000 C 303.167 262.000,299.000 262.397,299.000 263.000 M323.000 262.386 C 323.000 262.598,323.593 263.914,324.318 265.311 C 325.042 266.708,326.945 273.059,328.546 279.425 C 331.360 290.616,331.546 291.000,334.157 291.000 C 337.027 291.000,336.924 291.223,341.077 276.000 L 342.304 271.500 344.780 281.304 C 348.504 296.049,350.720 295.340,356.677 277.500 C 359.064 270.350,361.464 264.350,362.009 264.167 C 364.652 263.278,362.491 262.000,358.345 262.000 C 353.913 262.000,353.769 262.087,355.331 263.813 C 356.858 265.501,356.780 266.242,354.196 274.563 L 351.420 283.500 349.047 272.699 C 345.712 257.523,342.949 257.398,339.080 272.250 C 337.683 277.613,336.264 282.000,335.927 282.000 C 334.424 282.000,331.734 265.025,332.996 263.505 C 334.083 262.195,333.515 262.000,328.622 262.000 C 325.530 262.000,323.000 262.174,323.000 262.386 M370.030 263.279 C 363.057 266.808,363.828 272.765,372.000 278.496 C 377.255 282.181,378.818 287.288,375.057 288.482 C 372.178 289.396,369.215 288.254,368.484 285.949 C 367.493 282.826,365.000 283.565,365.000 286.981 C 365.000 290.534,367.576 291.533,374.672 290.734 C 385.613 289.500,386.918 279.060,376.777 273.886 C 372.146 271.524,370.060 267.838,372.017 265.479 C 373.867 263.251,378.282 264.002,379.487 266.750 C 380.892 269.953,383.000 269.567,383.000 266.107 C 383.000 261.925,375.806 260.357,370.030 263.279 M42.793 273.514 C 44.484 279.840,44.425 280.000,40.393 280.000 C 37.717 280.000,36.924 279.640,37.322 278.604 C 37.616 277.836,38.411 275.361,39.087 273.104 C 40.655 267.870,41.302 267.942,42.793 273.514 M132.000 288.000 C 132.000 290.667,132.333 291.000,135.000 291.000 C 137.667 291.000,138.000 290.667,138.000 288.000 C 138.000 285.333,137.667 285.000,135.000 285.000 C 132.333 285.000,132.000 285.333,132.000 288.000 M242.000 288.000 C 242.000 290.667,242.333 291.000,245.000 291.000 C 247.667 291.000,248.000 290.667,248.000 288.000 C 248.000 285.333,247.667 285.000,245.000 285.000 C 242.333 285.000,242.000 285.333,242.000 288.000 M387.000 288.000 C 387.000 290.667,387.333 291.000,390.000 291.000 C 392.667 291.000,393.000 290.667,393.000 288.000 C 393.000 285.333,392.667 285.000,390.000 285.000 C 387.333 285.000,387.000 285.333,387.000 288.000 M38.500 322.000 L 38.500 334.000 42.950 334.000 C 46.411 334.000,47.133 333.733,46.200 332.800 C 43.452 330.052,44.721 324.000,48.045 324.000 C 51.819 324.000,56.000 320.082,56.000 316.545 C 56.000 311.928,52.834 310.000,45.250 310.000 L 38.500 310.000 38.500 322.000 M64.302 311.012 C 58.459 313.365,56.949 326.103,61.923 331.077 C 69.163 338.317,79.000 333.088,79.000 322.000 C 79.000 312.299,72.736 307.616,64.302 311.012 M83.500 322.000 L 83.500 334.000 91.250 334.000 L 99.000 334.000 99.000 330.500 C 99.000 326.398,97.791 325.969,96.182 329.500 C 95.405 331.204,94.241 332.000,92.521 332.000 L 90.000 332.000 90.000 322.200 C 90.000 315.911,90.430 311.970,91.200 311.200 C 92.133 310.267,91.411 310.000,87.950 310.000 L 83.500 310.000 83.500 322.000 M102.965 311.934 C 103.534 312.998,104.000 317.528,104.000 322.000 C 104.000 326.472,103.534 331.002,102.965 332.066 C 102.009 333.852,102.293 334.000,106.665 334.000 C 110.348 334.000,111.133 333.733,110.200 332.800 C 108.566 331.166,108.566 312.834,110.200 311.200 C 111.133 310.267,110.348 310.000,106.665 310.000 C 102.293 310.000,102.009 310.148,102.965 311.934 M113.000 313.000 C 113.000 316.435,115.458 317.182,116.290 314.000 C 116.612 312.769,117.654 312.000,119.000 312.000 C 121.792 312.000,121.792 331.260,119.000 333.022 C 117.948 333.687,119.126 333.974,122.950 333.985 C 127.189 333.997,128.133 333.733,127.200 332.800 C 125.313 330.913,125.554 312.000,127.465 312.000 C 128.270 312.000,129.411 312.900,130.000 314.000 C 131.564 316.922,133.000 316.444,133.000 313.000 L 133.000 310.000 123.000 310.000 L 113.000 310.000 113.000 313.000 M136.965 311.934 C 137.534 312.998,138.000 317.528,138.000 322.000 C 138.000 326.472,137.534 331.002,136.965 332.066 C 136.009 333.852,136.293 334.000,140.665 334.000 C 144.348 334.000,145.133 333.733,144.200 332.800 C 143.433 332.033,143.000 328.133,143.000 322.000 C 143.000 315.867,143.433 311.967,144.200 311.200 C 145.133 310.267,144.348 310.000,140.665 310.000 C 136.293 310.000,136.009 310.148,136.965 311.934 M153.110 311.396 C 147.190 314.677,145.923 326.077,150.923 331.077 C 155.462 335.615,165.000 335.152,165.000 330.393 C 165.000 327.482,162.939 327.267,161.232 330.000 C 157.319 336.266,151.661 327.951,153.428 318.532 C 154.539 312.611,160.073 309.504,161.500 314.000 C 162.397 316.828,165.000 316.535,165.000 313.607 C 165.000 309.890,158.131 308.613,153.110 311.396 M171.228 311.230 C 166.265 313.622,167.223 319.853,173.127 323.580 C 177.671 326.449,178.752 328.389,176.989 330.513 C 175.251 332.608,172.242 332.360,170.768 330.000 C 169.003 327.174,167.812 327.519,168.184 330.750 C 168.468 333.220,168.941 333.532,172.832 333.811 C 183.786 334.599,186.380 325.421,176.894 319.433 C 173.884 317.533,172.953 316.344,173.187 314.698 C 173.613 311.703,177.491 311.212,179.193 313.937 C 180.933 316.724,183.000 316.545,183.000 313.607 C 183.000 310.003,176.498 308.691,171.228 311.230 M190.126 317.808 C 183.918 327.264,183.936 327.000,189.500 327.000 C 194.243 327.000,195.823 329.777,192.800 332.800 C 191.867 333.733,192.689 334.000,196.500 334.000 C 200.311 334.000,201.133 333.733,200.200 332.800 C 197.937 330.537,198.730 327.000,201.500 327.000 C 203.333 327.000,204.000 326.467,204.000 325.000 C 204.000 322.891,202.545 322.309,201.500 324.000 C 199.879 326.623,199.000 324.337,199.000 317.500 C 199.000 307.177,197.061 307.244,190.126 317.808 M207.500 322.000 L 207.500 334.000 211.950 334.000 C 215.411 334.000,216.133 333.733,215.200 332.800 C 213.362 330.962,213.631 323.000,215.531 323.000 C 216.374 323.000,217.322 323.675,217.638 324.500 C 218.728 327.339,220.000 325.993,220.000 322.000 C 220.000 318.007,218.728 316.661,217.638 319.500 C 216.306 322.971,214.000 321.069,214.000 316.500 C 214.000 311.809,218.143 309.604,219.638 313.500 C 220.584 315.964,223.000 315.246,223.000 312.500 C 223.000 310.048,222.850 310.000,215.250 310.000 L 207.500 310.000 207.500 322.000 M225.775 311.250 C 226.336 311.938,226.954 316.477,227.148 321.338 C 227.559 331.663,229.222 334.000,236.156 334.000 C 242.920 334.000,245.000 330.883,245.000 320.745 C 245.000 315.588,245.458 311.942,246.200 311.200 C 247.133 310.267,246.439 310.000,243.078 310.000 C 239.484 310.000,238.951 310.236,239.918 311.401 C 241.864 313.746,240.913 330.029,238.750 331.389 C 234.773 333.890,233.500 331.161,233.500 320.137 L 233.500 309.997 229.128 309.999 C 225.752 310.000,224.988 310.285,225.775 311.250 M250.965 311.934 C 251.534 312.998,252.000 317.528,252.000 322.000 C 252.000 326.472,251.534 331.002,250.965 332.066 C 250.043 333.788,250.275 334.000,253.087 334.000 C 255.688 334.000,256.039 333.752,255.077 332.592 C 254.353 331.720,254.021 328.395,254.204 323.842 L 254.500 316.500 259.429 325.250 C 266.847 338.418,269.000 337.957,269.000 323.200 C 269.000 316.133,269.415 311.985,270.200 311.200 C 271.133 310.267,270.533 310.000,267.500 310.000 C 264.467 310.000,263.867 310.267,264.800 311.200 C 265.514 311.914,265.987 315.257,265.967 319.450 L 265.934 326.500 261.382 318.250 C 257.045 310.391,256.666 310.000,253.380 310.000 C 250.279 310.000,250.034 310.196,250.965 311.934 M287.110 311.396 C 281.190 314.677,279.923 326.077,284.923 331.077 C 289.462 335.615,299.000 335.152,299.000 330.393 C 299.000 327.482,296.939 327.267,295.232 330.000 C 291.319 336.266,285.661 327.951,287.428 318.532 C 288.539 312.611,294.073 309.504,295.500 314.000 C 296.397 316.828,299.000 316.535,299.000 313.607 C 299.000 309.890,292.131 308.613,287.110 311.396 M307.302 311.012 C 301.459 313.365,299.949 326.103,304.923 331.077 C 312.163 338.317,322.000 333.088,322.000 322.000 C 322.000 312.299,315.736 307.616,307.302 311.012 M326.932 311.873 C 328.300 314.430,328.325 329.525,326.965 332.066 C 326.043 333.788,326.275 334.000,329.087 334.000 C 331.684 334.000,332.038 333.751,331.080 332.597 C 330.342 331.707,330.023 328.142,330.208 322.852 L 330.500 314.511 333.379 322.804 C 336.928 333.030,338.502 333.258,341.793 324.025 C 344.955 315.153,345.208 315.255,344.830 325.255 L 344.500 334.005 348.285 334.002 C 351.717 334.000,351.974 333.820,351.035 332.066 C 350.466 331.002,350.000 326.472,350.000 322.000 C 350.000 317.528,350.466 312.998,351.035 311.934 C 351.977 310.175,351.716 310.000,348.145 310.000 L 344.220 310.000 341.925 316.500 C 339.101 324.500,338.867 324.510,336.391 316.750 L 334.398 310.500 330.131 310.189 C 326.140 309.898,325.934 310.007,326.932 311.873 M50.182 314.500 C 51.672 317.770,49.889 322.000,47.021 322.000 C 45.262 322.000,45.000 321.351,45.000 317.000 C 45.000 311.230,48.027 309.770,50.182 314.500 M72.710 315.000 C 75.663 320.858,73.507 331.205,69.204 331.822 C 64.613 332.481,62.213 318.063,66.128 313.346 C 67.863 311.255,71.251 312.106,72.710 315.000 M315.710 315.000 C 318.663 320.858,316.507 331.205,312.204 331.822 C 307.613 332.481,305.213 318.063,309.128 313.346 C 310.863 311.255,314.251 312.106,315.710 315.000 M194.000 321.000 C 194.000 324.782,193.836 325.000,190.986 325.000 L 187.972 325.000 190.619 321.000 C 192.075 318.800,193.431 317.000,193.633 317.000 C 193.835 317.000,194.000 318.800,194.000 321.000 M274.000 331.500 C 274.000 333.333,274.533 334.000,276.000 334.000 C 277.467 334.000,278.000 333.333,278.000 331.500 C 278.000 329.667,277.467 329.000,276.000 329.000 C 274.533 329.000,274.000 329.667,274.000 331.500 " stroke="none" fill="#000000" fill-rule="evenodd"></path></g></svg>